# xmcd
# 
# Track frame offsets:
#     150
#     21297
#     37545
#     56581
#     74840
#     98229
#     116409
#     143724
#     163844
#     182542
#     203398
#     222055
#     244261
#     268973
#     288838
#     312692
# 
# Disc length: 4490
# 
# Revision: 3
# Processed by: cddbd v1.5.2PL0 Copyright (c) Steve Scherf et al.
# Submitted via: fre:ac v1.0.31
# 
DISCID=ea118810
DTITLE=Alex Capus - Léon and Louise [CD4]
DYEAR=2011
DGENRE=Hörbuch
TTITLE0=Zwölftes Kapitel 7
TTITLE1=Zwölftes Kapitel 8
TTITLE2=Dreizehntes Kapitel 1
TTITLE3=Dreizehntes Kapitel 2
TTITLE4=Dreizehntes Kapitel 3
TTITLE5=Dreizehntes Kapitel 4
TTITLE6=Dreizehntes Kapitel 5
TTITLE7=Dreizehntes Kapitel 6
TTITLE8=Vierzehntes Kapitel 1
TTITLE9=Vierzehntes Kapitel 2
TTITLE10=Vierzehntes Kapitel 3
TTITLE11=Vierzehntes Kapitel 4
TTITLE12=Vierzehntes Kapitel 5
TTITLE13=Vierzehntes Kapitel 6
TTITLE14=Vierzehntes Kapitel 7
TTITLE15=Fünfzehntes Kapitel 1
EXTD=YEAR: 2011
EXTT0=
EXTT1=
EXTT2=
EXTT3=
EXTT4=
EXTT5=
EXTT6=
EXTT7=
EXTT8=
EXTT9=
EXTT10=
EXTT11=
EXTT12=
EXTT13=
EXTT14=
EXTT15=
PLAYORDER=
